<svg xmlns="http://www.w3.org/2000/svg" version="1.1" xmlnsXlink="http://www.w3.org/1999/xlink" xmlns:svgjs="http://svgjs.dev/svgjs" width="1440" height="560" preserveAspectRatio="none" viewBox="0 0 1440 560">
    <g mask="url(&quot;#SvgjsMask1002&quot;)" fill="none">
        <rect width="1440" height="560" x="0" y="0" fill="rgba(11, 124, 197, 0)"></rect>
        <path d="M0,463.348C120.011,497.594,238.284,595.884,355.611,553.342C471.437,511.345,538.162,378.403,565.558,258.282C591.032,146.589,536.046,36.487,498.146,-71.623C466.816,-160.992,423.267,-241.568,364.339,-315.701C303.06,-392.792,245.118,-485.45,149.731,-509.935C54.928,-534.27,-35.067,-466.586,-129.954,-442.581C-229.484,-417.401,-340.789,-428.613,-421.67,-365.379C-509.147,-296.988,-570.014,-194.116,-587.927,-84.531C-605.992,25.986,-586.519,147.325,-520.229,237.581C-457.716,322.695,-342.269,339.799,-245.394,381.84C-164.692,416.863,-84.597,439.208,0,463.348" fill="#09639e"></path>
        <path d="M1440 968.361C1514.757 960.323 1567.992 898.229 1631.05 857.279 1693.754 816.558 1763.843 788.046 1809.192 728.604 1862.112 659.238 1927.739 577.805 1909.329 492.521 1890.818 406.765 1781.781 379.709 1720.357 317.06899999999996 1663.946 259.542 1640.755 162.274 1563.399 139.743 1486.046 117.21300000000002 1413.518 183.89800000000002 1335.779 205.055 1255.9850000000001 226.77100000000002 1165.385 214.586 1100.414 265.747 1030.5810000000001 320.736 966.9449999999999 403.722 970.7090000000001 492.526 974.461 581.053 1072.894 630.9449999999999 1119.098 706.5509999999999 1158.076 770.3340000000001 1162.666 854.162 1220.585 901.4159999999999 1281.059 950.754 1362.4 976.7049999999999 1440 968.361" fill="#0d95ec"></path>
    </g>
    <defs>
        <mask id="SvgjsMask1002">
            <rect width="1440" height="560" fill="#ffffff"></rect>
        </mask>
    </defs>
</svg>